<?xml version="1.0" encoding="UTF-8"?>
<svg xmlns="http://www.w3.org/2000/svg" viewBox="0 0 1000 1200" width="1000" height="1200">
  <defs>
    <style>
      .state-boundary { fill: none; stroke: #666; stroke-width: 1; }
      .india-outline { fill: #fef3c7; stroke: #92400e; stroke-width: 2; }
    </style>
  </defs>

  <!-- India Main Outline - More detailed and accurate -->
  <path class="india-outline" d="
    M 280,150
    L 300,145 L 320,142 L 340,140 L 360,138 L 380,137 L 400,137 L 420,138 L 440,140 L 460,143
    L 480,148 L 500,155 L 520,164 L 540,175 L 560,188 L 580,203 L 600,220 L 620,240
    L 635,260 L 648,282 L 660,305 L 670,330 L 678,356 L 684,383 L 688,410 L 690,438
    L 690,466 L 688,494 L 684,522 L 678,549 L 670,576 L 660,602 L 648,627 L 635,651
    L 620,674 L 605,696 L 588,717 L 570,736 L 550,754 L 528,770 L 505,785 L 480,798
    L 455,809 L 428,818 L 400,825 L 372,830 L 344,833 L 316,834 L 288,833 L 260,830
    L 234,825 L 210,818 L 188,809 L 168,798 L 150,785 L 135,770 L 122,754 L 112,736
    L 105,717 L 100,696 L 97,674 L 96,651 L 97,627 L 100,602 L 105,576 L 112,549
    L 122,522 L 135,494 L 150,466 L 168,438 L 188,410 L 210,383 L 234,356 L 260,330
    L 280,305 L 295,282 L 308,260 L 318,240 L 325,220 L 330,203 L 333,188

    L 300,180 L 280,170 L 270,160 L 270,150
    Z

    M 650,100
    L 670,105 L 688,112 L 704,121 L 718,132 L 730,145 L 740,160 L 748,177 L 754,195
    L 758,214 L 760,234 L 760,255 L 758,275 L 754,295 L 748,314 L 740,332 L 730,349
    L 718,365 L 704,379 L 688,391 L 670,401 L 650,408
    L 635,380 L 628,350 L 625,320 L 625,290 L 628,260 L 632,230 L 637,200 L 642,170
    L 647,140 L 650,120 L 650,100
    Z
  "/>

  <!-- State Boundaries -->
  <!-- Kashmir and Ladakh -->
  <path class="state-boundary" d="M 400,137 L 450,140 L 500,150 L 540,170 L 580,200 L 620,240 L 640,280 L 650,320 L 655,360 L 650,400 L 630,430 L 600,450 L 560,460 L 520,460 L 480,450 L 440,430 L 410,400 L 395,360 L 390,320 L 395,280 L 405,240 L 420,200 L 440,170 L 460,150 L 420,145 Z"/>

  <!-- Punjab, Haryana, Delhi -->
  <path class="state-boundary" d="M 410,400 L 440,430 L 470,450 L 500,460 L 520,465 L 535,475 L 545,490 L 550,510 L 545,530 L 530,540 L 510,545 L 485,543 L 460,535 L 440,520 L 425,500 L 415,480 L 410,455 Z"/>

  <!-- Uttar Pradesh -->
  <path class="state-boundary" d="M 550,510 L 575,520 L 600,535 L 620,555 L 635,580 L 645,610 L 650,645 L 645,680 L 630,705 L 610,720 L 585,730 L 555,735 L 525,730 L 500,720 L 480,705 L 465,685 L 455,660 L 450,635 L 450,610 L 455,585 L 465,560 L 480,540 L 500,525 L 520,515 Z"/>

  <!-- Bihar and Jharkhand -->
  <path class="state-boundary" d="M 650,645 L 670,650 L 685,660 L 695,675 L 700,695 L 700,720 L 695,745 L 685,765 L 670,780 L 650,790 L 625,795 L 600,793 L 580,785 L 565,770 L 555,750 L 550,725 L 550,700 L 555,675 L 565,655 L 580,640 L 600,630 L 625,625 Z"/>

  <!-- West Bengal and Sikkim -->
  <path class="state-boundary" d="M 700,720 L 715,710 L 730,705 L 745,705 L 758,710 L 768,720 L 775,735 L 778,753 L 775,770 L 768,785 L 758,797 L 745,805 L 730,808 L 715,807 L 700,800 L 688,788 L 680,772 L 675,755 L 673,735 Z"/>

  <!-- Odisha -->
  <path class="state-boundary" d="M 650,790 L 670,800 L 688,815 L 703,833 L 715,853 L 722,875 L 725,898 L 722,920 L 715,940 L 703,958 L 688,973 L 670,985 L 650,993 L 628,997 L 605,997 L 583,992 L 563,983 L 548,970 L 538,953 L 533,933 L 533,913 L 538,893 L 548,875 L 563,860 L 583,850 L 605,843 L 628,840 Z"/>

  <!-- Andhra Pradesh and Telangana -->
  <path class="state-boundary" d="M 525,730 L 545,745 L 560,765 L 570,790 L 575,820 L 575,850 L 570,880 L 560,905 L 545,925 L 525,940 L 500,948 L 475,950 L 450,945 L 428,935 L 410,920 L 397,900 L 390,875 L 388,848 L 390,820 L 397,795 L 410,775 L 428,760 L 450,750 L 475,745 Z"/>

  <!-- Karnataka -->
  <path class="state-boundary" d="M 450,945 L 468,955 L 483,970 L 495,990 L 503,1013 L 507,1038 L 507,1063 L 503,1087 L 495,1108 L 483,1126 L 468,1140 L 450,1150 L 430,1155 L 408,1155 L 387,1150 L 368,1140 L 352,1126 L 340,1108 L 332,1087 L 328,1063 L 328,1038 L 332,1013 L 340,990 L 352,970 L 368,955 L 387,945 L 408,940 Z"/>

  <!-- Tamil Nadu -->
  <path class="state-boundary" d="M 328,1063 L 340,1075 L 355,1085 L 373,1093 L 393,1098 L 415,1100 L 437,1098 L 458,1093 L 477,1085 L 493,1075 L 507,1063 L 515,1048 L 520,1030 L 522,1010 L 520,990 L 515,972 L 507,957 L 493,945 L 477,937 L 458,932 L 437,930 L 415,930 L 393,932 L 373,937 L 355,945 L 340,957 L 332,972 L 328,990 Z"/>

  <!-- Kerala -->
  <path class="state-boundary" d="M 328,1038 L 318,1055 L 310,1075 L 305,1098 L 303,1123 L 305,1148 L 310,1170 L 318,1188 L 330,1202 L 345,1212 L 363,1218 L 383,1220 L 403,1218 L 420,1212 L 433,1202 L 443,1188 L 450,1170 L 453,1148 L 453,1123 L 450,1098 L 443,1075 L 433,1055 L 420,1040 L 403,1030 L 383,1025 L 363,1025 L 345,1030 Z"/>

  <!-- Goa -->
  <path class="state-boundary" d="M 328,1038 L 315,1043 L 305,1050 L 298,1060 L 295,1072 L 298,1084 L 305,1094 L 315,1101 L 328,1106 L 342,1106 L 355,1101 L 365,1094 L 372,1084 L 375,1072 L 372,1060 L 365,1050 L 355,1043 L 342,1038 Z"/>

  <!-- Maharashtra -->
  <path class="state-boundary" d="M 388,848 L 405,860 L 420,875 L 432,893 L 440,915 L 445,940 L 445,965 L 440,988 L 432,1008 L 420,1025 L 405,1038 L 388,1047 L 368,1052 L 347,1052 L 327,1047 L 310,1038 L 297,1025 L 288,1008 L 283,988 L 280,965 L 280,940 L 283,915 L 288,893 L 297,875 L 310,860 L 327,848 L 347,840 Z"/>

  <!-- Gujarat and Daman Diu -->
  <path class="state-boundary" d="M 280,940 L 265,945 L 252,953 L 243,965 L 238,980 L 237,997 L 240,1013 L 247,1027 L 258,1038 L 272,1045 L 288,1048 L 305,1047 L 320,1042 L 332,1033 L 340,1020 L 345,1005 L 347,988 L 345,970 L 340,955 L 332,943 L 320,935 L 305,930 L 288,928 Z"/>

  <!-- Rajasthan -->
  <path class="state-boundary" d="M 410,400 L 390,420 L 375,445 L 365,475 L 360,510 L 360,545 L 365,580 L 375,610 L 390,635 L 410,655 L 435,670 L 465,678 L 495,680 L 520,675 L 540,665 L 555,650 L 565,630 L 570,605 L 570,580 L 565,555 L 555,535 L 540,520 L 520,510 L 495,505 L 465,505 L 435,510 L 415,520 L 400,535 L 390,555 L 385,580 L 385,605 L 390,625 L 400,640 L 415,650 L 435,655 L 455,655 L 473,650 L 488,640 L 500,625 L 508,605 L 512,580 L 512,555 L 508,535 L 500,520 L 488,510 L 473,505 L 455,503 L 435,505 L 420,510 Z"/>

  <!-- Madhya Pradesh and Chhattisgarh -->
  <path class="state-boundary" d="M 450,610 L 470,620 L 488,633 L 503,650 L 515,670 L 523,693 L 528,718 L 530,745 L 528,770 L 523,793 L 515,813 L 503,830 L 488,843 L 470,853 L 450,860 L 428,863 L 405,863 L 383,860 L 363,853 L 347,843 L 335,830 L 327,813 L 323,793 L 320,770 L 320,745 L 323,718 L 327,693 L 335,670 L 347,650 L 363,633 L 383,620 L 405,610 Z"/>

  <!-- Andaman and Nicobar Islands -->
  <path class="state-boundary" d="M 850,800 L 860,820 L 865,845 L 865,873 L 860,900 L 850,920 L 835,933 L 818,940 L 800,943 L 782,940 L 765,933 L 752,920 L 745,900 L 742,873 L 745,845 L 752,820 L 765,800 L 782,788 L 800,783 L 818,788 Z M 850,1000 L 860,1020 L 865,1043 L 865,1068 L 860,1093 L 850,1113 L 835,1127 L 818,1135 L 800,1138 L 782,1135 L 765,1127 L 752,1113 L 745,1093 L 742,1068 L 745,1043 L 752,1020 L 765,1000 L 782,988 L 800,983 L 818,988 Z"/>

  <!-- Lakshadweep -->
  <path class="state-boundary" d="M 150,1050 L 158,1058 L 163,1070 L 165,1083 L 163,1097 L 158,1108 L 150,1115 L 140,1118 L 130,1115 L 122,1108 L 117,1097 L 115,1083 L 117,1070 L 122,1058 L 130,1050 Z"/>
</svg>
